<?xml version="1.0" encoding="UTF-8"?>
<svg version="1.1" xmlns="http://www.w3.org/2000/svg" width="250" height="250">
<path d="M0 0 C82.5 0 165 0 250 0 C250 82.5 250 165 250 250 C167.5 250 85 250 0 250 C0 167.5 0 85 0 0 Z " fill="#000000" transform="translate(0,0)"/>
<path d="M0 0 C3.52427227 0.68766288 4.97678566 1.99744033 7.5625 4.5 C8.99321938 7.06089539 9.95958476 9.73929979 10.9375 12.5 C11.23148682 13.29253174 11.52547363 14.08506348 11.82836914 14.90161133 C12.7584422 17.42807476 13.66345326 19.96234455 14.5625 22.5 C14.84883301 23.30099121 15.13516602 24.10198242 15.43017578 24.92724609 C17.19933493 29.88715602 18.92980437 34.8598211 20.64508057 39.83859253 C22.25221297 44.50083755 23.872639 49.15846266 25.4921875 53.81640625 C25.82483612 54.77366104 26.15748474 55.73091583 26.50021362 56.71717834 C29.86654759 66.39413527 33.27740194 76.0550478 36.71533203 85.70678711 C37.35523396 87.50420123 37.99393812 89.3020423 38.63134766 91.1003418 C41.74605249 99.88453723 44.88585929 108.60781918 48.61279297 117.15454102 C49.93628314 120.42311943 50.5625 122.96469994 50.5625 126.5 C48.8697108 129.71629947 48.05069868 130.33726711 44.5625 131.5 C42.72798135 131.59820634 40.89011039 131.63821772 39.05297852 131.64526367 C37.92493301 131.65164352 36.79688751 131.65802338 35.63465881 131.66459656 C33.80649879 131.66626579 33.80649879 131.66626579 31.94140625 131.66796875 C30.68996323 131.67129715 29.4385202 131.67462555 28.14915466 131.67805481 C25.50036059 131.68312152 22.85166912 131.68589532 20.20288086 131.68530273 C16.81224106 131.6852011 13.42181062 131.69885687 10.03122044 131.71607494 C6.79295686 131.72988004 3.55469527 131.72928394 0.31640625 131.73046875 C-1.50871742 131.74124702 -1.50871742 131.74124702 -3.37071228 131.75224304 C-4.50190994 131.74916641 -5.6331076 131.74608978 -6.79858398 131.74291992 C-7.7932518 131.74434494 -8.78791962 131.74576996 -9.81272888 131.74723816 C-12.56399564 131.48808485 -14.14267563 131.01772071 -16.4375 129.5 C-18.616157 126.23201451 -19.15958564 125.29094962 -18.4375 121.5 C-15.03692266 117.75769968 -12.80702933 116.20135958 -7.71728516 115.93237305 C-5.88685335 115.93315817 -4.0562924 115.96102645 -2.2265625 116.01171875 C-1.25842621 116.01879349 -0.29028992 116.02586823 0.70718384 116.03315735 C3.7847579 116.06103871 6.86048036 116.1237662 9.9375 116.1875 C12.02992155 116.21259093 14.12237176 116.2354027 16.21484375 116.25585938 C21.33143736 116.31084507 26.44665528 116.39707506 31.5625 116.5 C25.52370118 97.95904149 19.01837778 79.59710032 12.45864868 61.23506165 C12.13069305 60.31702255 11.80273743 59.39898346 11.46484375 58.453125 C11.14148041 57.54817795 10.81811707 56.6432309 10.48495483 55.71086121 C7.13437083 46.32230578 3.84328124 36.91313642 0.5625 27.5 C-2.03871162 30.69914113 -3.74489612 33.99871756 -5.484375 37.73046875 C-5.9160347 38.65231712 -5.9160347 38.65231712 -6.35641479 39.5927887 C-7.30488191 41.62217195 -8.24633333 43.65472192 -9.1875 45.6875 C-9.85573142 47.12217542 -10.52419249 48.55674389 -11.19287109 49.99121094 C-15.87396729 60.05112091 -20.47881503 70.14541586 -25.0625 80.25 C-25.68364074 81.61834243 -26.30481579 82.9866693 -26.92602539 84.35498047 C-27.54313382 85.71451718 -28.16023995 87.07405494 -28.77734375 88.43359375 C-29.08001663 89.10028076 -29.38268951 89.76696777 -29.6945343 90.45385742 C-31.2300518 93.83674676 -32.76353409 97.22053356 -34.29345703 100.60595703 C-35.78088357 103.89539555 -37.27753326 107.18049504 -38.78070068 110.46276855 C-39.60241625 112.26302243 -40.41486835 114.06749552 -41.22705078 115.87207031 C-41.72317871 116.95198242 -42.21930664 118.03189453 -42.73046875 119.14453125 C-43.1586792 120.08659424 -43.58688965 121.02865723 -44.02807617 121.99926758 C-45.55418193 124.70702805 -47.02338583 126.54224554 -49.4375 128.5 C-53.24903499 128.5 -55.48847421 128.30074051 -58.4375 125.8125 C-59.82112541 122.61286624 -59.22514465 120.89344604 -58.4375 117.5 C-57.36592154 114.86320649 -56.25318318 112.32023759 -55.03515625 109.75390625 C-54.51167351 108.62785225 -54.51167351 108.62785225 -53.97761536 107.47904968 C-52.82508733 105.00368945 -51.66247192 102.53320389 -50.5 100.0625 C-49.68492808 98.31579418 -48.87065088 96.56871731 -48.05712891 94.82128906 C-46.36461056 91.18749856 -44.66867489 87.55533333 -42.97021484 83.92431641 C-39.43006155 76.35018807 -35.9277732 68.75865374 -32.42727661 61.1661377 C-31.3138232 58.75286786 -30.19807241 56.34067199 -29.08178711 53.92871094 C-25.31050919 45.77388932 -21.57455175 37.60483492 -17.890625 29.41015625 C-16.79761168 26.98733155 -15.70405596 24.56475227 -14.6104126 22.14221191 C-13.58757538 19.86824741 -12.57467534 17.59003228 -11.56201172 15.31152344 C-10.94026048 13.93272533 -10.31805328 12.55413271 -9.6953125 11.17578125 C-9.1605127 9.97864502 -8.62571289 8.78150879 -8.07470703 7.5480957 C-6.06429093 3.8051722 -4.3077782 0.88364681 0 0 Z " fill="#00BA5F" transform="translate(128.4375,54.5)"/>
</svg>
